<?xml version="1.0" standalone="no"?><!DOCTYPE svg PUBLIC "-//W3C//DTD SVG 1.1//EN" "http://www.w3.org/Graphics/SVG/1.1/DTD/svg11.dtd"><svg t="1586683442509" class="icon" viewBox="0 0 1024 1024" version="1.1" xmlns="http://www.w3.org/2000/svg" p-id="1665" xmlns:xlink="http://www.w3.org/1999/xlink" width="200" height="200"><defs><style type="text/css"></style></defs><path d="M862.315789 921.6H161.684211l-5.389474-10.778947c-80.842105-91.621053-123.957895-204.8-123.957895-323.368421 0-269.473684 215.578947-485.052632 485.052632-485.052632s485.052632 215.578947 485.052631 485.052632c0 118.568421-43.115789 231.747368-123.957894 323.368421l-16.168422 10.778947z m-679.073684-53.894737h657.51579c64.673684-75.452632 102.4-177.852632 102.4-280.252631 0-237.136842-194.021053-431.157895-431.157895-431.157895s-431.157895 194.021053-431.157895 431.157895c0 102.4 37.726316 199.410526 102.4 280.252631z" fill="#444A5C" p-id="1666"></path><path d="M512 808.421053c-59.284211 0-107.789474-48.505263-107.789474-107.789474s48.505263-107.789474 107.789474-107.789474 107.789474 48.505263 107.789474 107.789474-48.505263 107.789474-107.789474 107.789474z m0-161.684211c-32.336842 0-53.894737 21.557895-53.894737 53.894737s21.557895 53.894737 53.894737 53.894737 53.894737-21.557895 53.894737-53.894737-21.557895-53.894737-53.894737-53.894737z" fill="#444A5C" p-id="1667"></path><path d="M592.842105 646.736842l-37.726316-37.726316 161.684211-161.68421 37.726316 37.726316-161.684211 161.68421" fill="#444A5C" p-id="1668"></path></svg>